<svg xmlns="http://www.w3.org/2000/svg" viewBox="0 0 120 120" role="img" aria-labelledby="ocppTitle ocppDesc">
  <title id="ocppTitle">OcppServer icon</title>
  <desc id="ocppDesc">A stylised EV charging connector forming the letters OCPP.</desc>
  <defs>
    <linearGradient id="ocppGradient" x1="18" y1="18" x2="102" y2="102" gradientUnits="userSpaceOnUse">
      <stop offset="0" stop-color="#00a95c" />
      <stop offset="1" stop-color="#0c7a1f" />
    </linearGradient>
  </defs>
  <rect x="6" y="6" width="108" height="108" rx="22" fill="#06210c" />
  <path d="M46 34c-7.7 0-14 6.3-14 14v24c0 7.7 6.3 14 14 14h4c5.5 0 10-4.5 10-10V58h8v-8h-8v-6l10-10 12 12-8 8v24c0 11-9 20-20 20h-8c-15.5 0-28-12.5-28-28V48c0-15.5 12.5-28 28-28h16v12H46Z" fill="url(#ocppGradient)" />
  <text x="60" y="94" text-anchor="middle" font-size="20" font-family="'Segoe UI', Arial, sans-serif" font-weight="700" fill="#e6ffe9">OCPP</text>
</svg>
